<svg width="1280" height="832" viewBox="0 0 1280 832" fill="none" xmlns="http://www.w3.org/2000/svg">
<rect width="1280" height="832" fill="#ececec"/>
<path d="M379 218C294.59 218 226 286.59 226 371C226 455.41 294.59 524 379 524C412.398 524 443.266 513.242 468.438 495.031L586.844 613.156L612.156 587.844L495.156 470.563C518.148 443.773 532 409.004 532 371C532 286.59 463.41 218 379 218ZM379 236C453.672 236 514 296.328 514 371C514 445.672 453.672 506 379 506C304.328 506 244 445.672 244 371C244 296.328 304.328 236 379 236Z" fill="#006400"/>
<rect x="221" y="330" width="838" height="95" fill="#ececec"/>
<path d="M194.889 416C189.086 416 184.819 415.744 182.089 415.232C179.358 414.72 177.993 414.123 177.993 413.44L183.113 402.304C185.075 402.645 189.939 402.987 197.705 403.328C205.555 403.584 216.307 403.712 229.961 403.712H232.393C236.062 403.712 238.664 403.072 240.201 401.792C241.737 400.427 242.505 398.165 242.505 395.008V392.448C242.505 389.461 241.865 387.328 240.585 386.048C239.39 384.768 236.659 384.128 232.393 384.128H202.697C194.078 384.128 187.806 382.549 183.881 379.392C179.955 376.149 177.993 370.901 177.993 363.648V361.6C177.993 357.845 178.675 354.389 180.041 351.232C181.491 348.075 183.923 345.557 187.337 343.68C190.75 341.717 195.443 340.736 201.417 340.736H236.233C242.035 340.736 246.729 341.035 250.312 341.632C253.897 342.229 255.689 342.869 255.689 343.552L253.129 354.304C250.91 354.048 245.875 353.792 238.025 353.536C230.174 353.195 219.635 353.024 206.409 353.024L205.001 352.896C201.075 352.896 198.43 353.707 197.065 355.328C195.699 356.864 194.974 358.827 194.889 361.216V363.392C194.889 366.208 195.657 368.341 197.193 369.792C198.814 371.157 201.459 371.84 205.129 371.84H233.545C239.006 371.84 243.657 372.395 247.497 373.504C251.337 374.613 254.281 376.661 256.329 379.648C258.377 382.549 259.401 386.859 259.401 392.576V394.624C259.401 401.024 257.737 406.187 254.409 410.112C251.166 414.037 245.491 416 237.385 416H194.889ZM278.583 416V350.976L277.303 340.608H334.007C339.468 340.608 343.735 341.333 346.807 342.784C349.964 344.235 352.268 346.155 353.719 348.544C355.255 350.848 356.236 353.323 356.663 355.968C357.089 358.613 357.303 361.131 357.303 363.52V371.072C357.303 373.035 357.004 375.253 356.407 377.728C355.809 380.117 354.7 382.464 353.079 384.768C351.457 386.987 349.111 388.864 346.039 390.4C342.967 391.851 338.956 392.576 334.007 392.576H320.951C315.575 392.576 310.54 392.448 305.847 392.192C301.239 391.936 297.783 391.723 295.479 391.552V416H278.583ZM295.479 380.288H330.295C334.135 380.288 336.78 379.349 338.231 377.472C339.681 375.595 340.407 373.333 340.407 370.688V362.624C340.407 359.893 339.681 357.589 338.231 355.712C336.78 353.835 334.177 352.896 330.423 352.896H295.479V380.288ZM397.322 416C391.348 416 386.655 415.147 383.242 413.44C379.828 411.733 377.396 409.173 375.946 405.76C374.58 402.347 373.898 398.123 373.898 393.088V363.52C373.898 358.571 374.58 354.432 375.946 351.104C377.311 347.691 379.7 345.131 383.114 343.424C386.527 341.632 391.263 340.736 397.322 340.736H434.698C440.671 340.736 445.322 341.632 448.65 343.424C452.063 345.131 454.452 347.691 455.818 351.104C457.268 354.432 457.994 358.571 457.994 363.52V393.088C457.994 400.597 456.33 406.315 453.002 410.24C449.674 414.08 443.572 416 434.698 416H397.322ZM401.034 403.712H431.114C434.271 403.712 436.703 402.901 438.41 401.28C440.202 399.659 441.098 397.44 441.098 394.624V361.984C441.098 359.509 440.202 357.419 438.41 355.712C436.618 353.92 434.186 353.024 431.114 353.024H401.034C397.962 353.024 395.487 353.835 393.61 355.456C391.732 357.077 390.794 359.253 390.794 361.984V394.624C390.794 397.525 391.69 399.787 393.482 401.408C395.359 402.944 397.876 403.712 401.034 403.712ZM558.97 417.28C555.556 417.28 552.186 416.768 548.858 415.744C545.615 414.635 541.903 411.989 537.722 407.808L528.506 398.592C524.751 394.752 520.612 391.936 516.09 390.144C511.652 388.352 506.063 387.456 499.322 387.456H495.354V416H478.458V350.976L477.178 340.608H533.882C539.343 340.608 543.61 341.333 546.682 342.784C549.839 344.235 552.143 346.155 553.594 348.544C555.13 350.848 556.111 353.323 556.538 355.968C556.964 358.613 557.178 361.131 557.178 363.52V365.952C557.178 367.829 556.922 369.92 556.41 372.224C555.898 374.528 554.916 376.789 553.466 379.008C552.015 381.227 549.924 383.104 547.194 384.64C544.548 386.176 541.05 387.072 536.698 387.328C537.807 387.925 539.215 388.864 540.922 390.144C542.628 391.339 544.378 392.661 546.17 394.112C548.047 395.563 549.754 396.885 551.29 398.08C552.826 399.275 554.02 400.128 554.874 400.64C557.946 402.432 560.676 403.669 563.066 404.352C565.455 405.035 567.418 405.419 568.954 405.504C570.49 405.589 571.386 405.632 571.642 405.632L569.082 416C568.314 416.256 567.034 416.512 565.242 416.768C563.45 417.109 561.359 417.28 558.97 417.28ZM514.554 375.808C517.796 375.808 520.698 375.765 523.258 375.68C525.818 375.509 528.122 375.339 530.17 375.168C533.924 374.741 536.527 373.717 537.978 372.096C539.514 370.389 540.282 368.213 540.282 365.568V362.624C540.282 359.893 539.556 357.589 538.106 355.712C536.655 353.835 534.052 352.896 530.298 352.896H495.354V375.168C499.108 375.424 502.564 375.595 505.722 375.68C508.879 375.765 511.823 375.808 514.554 375.808ZM605.322 416C599.263 416 594.527 415.147 591.114 413.44C587.7 411.733 585.311 409.173 583.946 405.76C582.58 402.347 581.898 398.123 581.898 393.088V364.544C581.898 356.352 583.732 350.336 587.402 346.496C591.071 342.571 597.044 340.608 605.322 340.608H643.85C649.738 340.608 654.218 340.949 657.29 341.632C660.447 342.229 662.026 342.869 662.026 343.552L659.466 354.176C658.015 353.92 653.706 353.664 646.538 353.408C639.455 353.067 629.13 352.896 615.562 352.896H609.034C602.207 352.896 598.794 355.925 598.794 361.984V394.624C598.794 397.525 599.519 399.787 600.97 401.408C602.506 402.944 605.194 403.712 609.034 403.712H614.282C622.474 403.712 629.386 403.669 635.018 403.584C640.65 403.413 645.3 403.285 648.97 403.2V385.792L641.29 385.92L624.522 387.2V374.656H665.738V410.624L667.018 413.312C667.018 413.995 665.226 414.635 661.642 415.232C658.058 415.744 651.999 416 643.465 416H605.322ZM674.688 416L712.192 340.736H737.408L774.784 416H755.072L747.52 399.744H701.696L693.376 416H674.688ZM706.304 387.2H742.784L725.248 352.256H723.968L706.304 387.2ZM786.333 416V350.976L785.053 340.736H803.485L847.005 386.304L851.997 393.216H853.405V340.736H870.301V416H854.045L809.501 369.664L804.509 363.648H803.229V416H786.333ZM890.803 416V340.736H907.699V416H890.803ZM924.338 416V403.584L981.17 353.024H924.338V340.736H1003.83V353.024L945.842 403.712H1003.19L1008.31 414.592C1008.31 414.933 1007.15 415.275 1004.85 415.616C1002.55 415.872 998.578 416 992.946 416H924.338ZM1021.93 416V340.736H1101.54V353.024H1038.82V370.688H1086.7V383.36H1038.82V403.712H1102.06L1107.18 414.592C1107.18 414.933 1106.02 415.275 1103.72 415.616C1101.42 415.872 1097.45 416 1091.82 416H1021.93Z" fill="#006400"/>
</svg>
